<?xml version="1.0" encoding="UTF-8"?>
<svg width="128" height="128" viewBox="0 0 128 128" xmlns="http://www.w3.org/2000/svg">
  <defs>
    <linearGradient id="bg" x1="0" y1="0" x2="1" y2="1">
      <stop offset="0" stop-color="#1f2a44"/>
      <stop offset="1" stop-color="#101521"/>
    </linearGradient>
    <linearGradient id="chip" x1="0" y1="0" x2="0" y2="1">
      <stop offset="0" stop-color="#3b6ea5"/>
      <stop offset="1" stop-color="#2a4d78"/>
    </linearGradient>
  </defs>
  <rect x="4" y="4" width="120" height="120" rx="22" fill="url(#bg)"/>
  <!-- chip body -->
  <rect x="38" y="38" width="52" height="52" rx="6" fill="url(#chip)" stroke="#7fb0e6" stroke-width="2"/>
  <rect x="50" y="50" width="28" height="28" rx="3" fill="#0d1626" stroke="#7fb0e6" stroke-width="1.5"/>
  <!-- pins -->
  <g fill="#7fb0e6">
    <rect x="46" y="26" width="5" height="12" rx="1"/>
    <rect x="61" y="26" width="5" height="12" rx="1"/>
    <rect x="76" y="26" width="5" height="12" rx="1"/>
    <rect x="46" y="90" width="5" height="12" rx="1"/>
    <rect x="61" y="90" width="5" height="12" rx="1"/>
    <rect x="76" y="90" width="5" height="12" rx="1"/>
    <rect x="26" y="46" width="12" height="5" rx="1"/>
    <rect x="26" y="61" width="12" height="5" rx="1"/>
    <rect x="26" y="76" width="12" height="5" rx="1"/>
    <rect x="90" y="46" width="12" height="5" rx="1"/>
    <rect x="90" y="61" width="12" height="5" rx="1"/>
    <rect x="90" y="76" width="12" height="5" rx="1"/>
  </g>
  <!-- flask hint (the "lab") -->
  <path d="M60 55 h8 v9 l7 12 a4 4 0 0 1 -3.5 6 h-15 a4 4 0 0 1 -3.5 -6 l7 -12 z"
        fill="#8fd694" opacity="0.9"/>
</svg>
